<svg width="228" height="84" viewBox="0 0 228 84" fill="none" xmlns="http://www.w3.org/2000/svg">
<g filter="url(#filter0_d_1972_32)">
<path d="M105.918 21.046C105.918 21.7052 105.3 22.1996 104.558 22.1996H93.5162V61.3818C93.5162 62.1235 93.0218 62.7827 92.4449 62.7827H85.6468C85.0699 62.7827 84.5343 62.1235 84.5343 61.3818V22.1996H73.2864C72.6684 22.1996 72.1328 21.7052 72.1328 21.046V14.3302C72.1328 13.671 72.6684 13.2178 73.2864 13.2178H104.558C105.3 13.2178 105.918 13.671 105.918 14.3302V21.046ZM143.781 60.9698L134.594 44.6954L133.316 42.5118L133.028 42.0173C141.392 40.1633 145.718 33.9831 145.718 27.9266C145.718 23.9301 143.905 20.1396 140.733 17.5027C137.478 14.701 132.946 13.259 127.672 13.259H110.821C110.203 13.259 109.667 13.7946 109.667 14.3714V18.9447L110.244 19.9748V20.016L117.948 33.5299H109.667V61.6703C109.667 62.2883 110.203 62.8239 110.821 62.8239H117.578C118.154 62.8239 118.69 62.2883 118.69 61.6703V42.5118H123.016L124.211 44.6954L134.099 62.1235L134.182 62.2883C134.388 62.5767 134.717 62.8239 135.129 62.8239H142.834C143.493 62.8239 143.946 62.2883 143.946 61.6291C143.946 61.423 143.946 61.2582 143.823 61.0934L143.781 60.9698ZM127.054 31.3875L121.904 22.282H127.672C133.893 22.282 136.695 25.2073 136.695 27.9266C136.695 30.2338 134.594 32.7883 129.938 33.4063C129.402 33.4475 128.825 33.5299 128.249 33.5299L127.054 31.3875ZM183.293 43.6242C183.293 42.965 182.758 42.5118 182.14 42.5118H178.308L171.304 14.3302L171.221 14.0418C171.057 13.6298 170.645 13.3414 170.191 13.3414H162.652C162.157 13.3414 161.786 13.6298 161.58 14.0418L161.539 14.3714L149.838 61.1346C149.838 61.217 149.838 61.2582 149.756 61.2582V61.5054C149.756 62.2059 150.291 62.7003 150.868 62.7003H157.831C158.325 62.7003 158.779 62.3707 158.902 61.9175C158.902 61.8351 158.943 61.7939 158.943 61.7939L161.498 51.4524H171.345L173.899 61.7115L173.941 61.9175C174.105 62.3707 174.517 62.7003 174.971 62.7003H181.975C182.593 62.7003 183.046 62.2059 183.046 61.5054V61.3818L183.005 61.0934L180.574 51.4524H182.14C182.758 51.4524 183.293 50.9992 183.293 50.3812V43.6242ZM163.723 42.5118L166.442 31.8407L169.079 42.5118H163.723ZM224 63.1123L199.197 36.0432V61.6291C199.197 62.2471 198.744 62.7827 198.126 62.7827H191.369C190.709 62.7827 190.215 62.2471 190.215 61.6291V12.8882L215.018 39.9161V14.3714C215.018 13.7534 215.513 13.2178 216.089 13.2178H222.929C223.506 13.2178 224 13.7534 224 14.3714V63.1123Z" fill="#3C3836"/>
<path d="M31.5666 52.3539H50.7053V54.4807H31.5666V52.3539ZM11.3649 52.3539H13.4917V54.4807H11.3649V52.3539ZM50.7053 11.9488C50.7055 11.6696 50.6506 11.393 50.5439 11.135C50.4371 10.8769 50.2805 10.6425 50.083 10.445C49.8856 10.2475 49.6511 10.0909 49.3931 9.98417C49.135 9.87739 48.8584 9.82254 48.5792 9.82275H14.554C14.2748 9.82265 13.9983 9.87758 13.7404 9.98439C13.4824 10.0912 13.2481 10.2478 13.0507 10.4453C12.8533 10.6427 12.6968 10.8772 12.59 11.1352C12.4833 11.3931 12.4285 11.6696 12.4287 11.9488V37.4681C12.4284 37.7474 12.4831 38.024 12.5898 38.2821C12.6965 38.5401 12.853 38.7747 13.0504 38.9722C13.2478 39.1697 13.4822 39.3264 13.7402 39.4333C13.9982 39.5402 14.2747 39.5951 14.554 39.595L48.5792 39.5942C48.8585 39.5944 49.1351 39.5395 49.3932 39.4327C49.6513 39.3259 49.8858 39.1692 50.0833 38.9717C50.2808 38.7741 50.4374 38.5396 50.5441 38.2814C50.6508 38.0233 50.7056 37.7467 50.7053 37.4673V11.9488ZM54.959 75.6681H8.17336C7.91229 75.6681 7.6619 75.5645 7.47723 75.3799C7.29255 75.1954 7.18869 74.9451 7.18848 74.684V66.1758C7.18848 65.9145 7.29224 65.664 7.47694 65.4793C7.66164 65.2946 7.91215 65.1909 8.17336 65.1909C8.43457 65.1909 8.68508 65.2946 8.86978 65.4793C9.05448 65.664 9.15825 65.9145 9.15825 66.1758V73.6976H53.9733V66.1773C53.968 66.0447 53.9895 65.9123 54.0366 65.7881C54.0837 65.664 54.1554 65.5506 54.2474 65.4549C54.3393 65.3591 54.4497 65.2829 54.5719 65.2309C54.694 65.1788 54.8254 65.152 54.9582 65.152C55.091 65.152 55.2224 65.1788 55.3446 65.2309C55.4667 65.2829 55.5771 65.3591 55.6691 65.4549C55.7611 65.5506 55.8327 65.664 55.8798 65.7881C55.9269 65.9123 55.9484 66.0447 55.9431 66.1773V74.6833C55.9432 74.8126 55.9178 74.9406 55.8684 75.0601C55.819 75.1796 55.7465 75.2882 55.6552 75.3796C55.5638 75.4711 55.4552 75.5436 55.3358 75.5931C55.2163 75.6427 55.0883 75.6681 54.959 75.6681V75.6681Z" fill="#1E90FF"/>
<path d="M56.0219 67.1623H7.11176C6.28687 67.1615 5.49599 66.8335 4.91263 66.2502C4.32927 65.667 4.00106 64.8762 4 64.0513V3.44379C4.00084 2.6189 4.32885 1.82802 4.91206 1.24466C5.49528 0.661296 6.28607 0.333087 7.11096 0.332031H56.0219C56.8468 0.333087 57.6376 0.661296 58.2208 1.24466C58.804 1.82802 59.132 2.6189 59.1329 3.44379V64.0505C59.132 64.8754 58.804 65.6663 58.2208 66.2497C57.6376 66.833 56.8468 67.1612 56.0219 67.1623V67.1623ZM8.1732 65.1917H56.0219C56.6511 65.1917 57.1631 64.6798 57.1631 64.0505V3.44379C57.1631 2.81378 56.6511 2.3018 56.0219 2.3018H7.11096C6.48175 2.3018 5.96897 2.81378 5.96897 3.44379V64.0505C5.96897 64.6798 6.48175 65.1917 7.11096 65.1917H8.1732V65.1917Z" fill="#1E90FF"/>
</g>
<defs>
<filter id="filter0_d_1972_32" x="0" y="0.332031" width="228" height="83.3359" filterUnits="userSpaceOnUse" color-interpolation-filters="sRGB">
<feFlood flood-opacity="0" result="BackgroundImageFix"/>
<feColorMatrix in="SourceAlpha" type="matrix" values="0 0 0 0 0 0 0 0 0 0 0 0 0 0 0 0 0 0 127 0" result="hardAlpha"/>
<feOffset dy="4"/>
<feGaussianBlur stdDeviation="2"/>
<feComposite in2="hardAlpha" operator="out"/>
<feColorMatrix type="matrix" values="0 0 0 0 0 0 0 0 0 0 0 0 0 0 0 0 0 0 0.25 0"/>
<feBlend mode="normal" in2="BackgroundImageFix" result="effect1_dropShadow_1972_32"/>
<feBlend mode="normal" in="SourceGraphic" in2="effect1_dropShadow_1972_32" result="shape"/>
</filter>
</defs>
</svg>
